<svg xmlns="http://www.w3.org/2000/svg" xmlns:xlink="http://www.w3.org/1999/xlink"><defs><symbol viewBox="0 0 50 50" id="chevron"><path d="M45.565 12L51 19.148l-10.626 7.936L25.756 38l-.256-.34-.256.34L0 19.148 5.435 12 25.5 26.983z" fill-rule="evenodd" /></symbol><symbol viewBox="0 0 50 50" id="heart"><path d="M41.224 4.189c4.52 1.944 7.972 6.11 8.616 10.218C51.64 25.895 37.943 43 25.728 46.752L24.702 47l-.226-.052C12.239 43.25-1.645 26.095.159 14.58.8 10.486 4.483 6.264 9.254 4.272c5.24-2.188 11.015-1.515 16.217 2.443 5.184-3.964 10.766-4.67 15.753-2.526z" fill-rule="evenodd" /></symbol><symbol viewBox="0 0 22 22" id="logo"><circle cx="11" cy="11" r="11" fill-rule="evenodd" /></symbol><symbol viewBox="0 0 50 50" id="plus"><path d="M28.071 2v19.929H48v5.142H28.071V47H22.93V27.071H3V21.93h19.929V2z" fill-rule="evenodd" /></symbol><symbol viewBox="0 0 48 48" id="shield"><path d="M47 1l-.002 1.644-.018 1.75C46.545 32.696 39.015 47 24 47 8.833 47 1.304 32.405 1.009 3.533L1 1h46z" fill-rule="nonzero" /></symbol></defs></svg>