<?xml version="1.0" encoding="UTF-8" standalone="no"?>
<!-- Created with Inkscape (http://www.inkscape.org/) -->

<svg
   width="183"
   height="200"
   viewBox="0 0 48.418755 52.916666"
   version="1.1"
   id="svg1"
   xmlns="http://www.w3.org/2000/svg"
   xmlns:svg="http://www.w3.org/2000/svg">
  <defs
     id="defs1" />
  <g
     id="layer1">
    <g
       id="g9"
       transform="matrix(0.07924348,0,0,0.07924348,-14.285442,-26.962123)">
      <path
         id="path3-6"
         style="fill:#4a6b8f;fill-opacity:1;stroke:none;stroke-width:1.10348;stroke-opacity:1"
         d="m 441.438,347.33281 0.29087,23.25285 10.61031,32.70141 -22.09126,-14.24396 c 0,0 13.67566,22.76245 13.95308,35.46227 0.10741,4.91708 -4.7976,13.953 -4.7976,13.953 0,0 17.02019,12.63456 21.94681,21.65367 1.9531,3.38105 5.08638,24.12572 5.08638,24.12572 l 19.36478,13.40773 19.36697,-13.33445 c 0,0 2.99146,-18.89968 5.08628,-24.12572 4.92615,-9.0188 21.94471,-21.65367 21.94471,-21.65367 0,0 -4.90301,-9.03616 -4.7954,-13.953 0.27795,-12.69952 13.95077,-35.46227 13.95077,-35.46227 l -22.08894,14.24396 10.60799,-32.70141 0.29098,-23.25285 c 0,0 -25.16494,43.49625 -29.35646,43.74699 -7.5631,-6.61419 -14.94014,-12.33441 -14.94014,-12.33441 0,0 -9.8022,9.38496 -15.07157,12.25898 -4.02799,-1.17788 -29.35856,-43.74484 -29.35856,-43.74484 z m 16.59955,74.80612 14.30223,11.46586 c 0,0 4.31339,9.87457 3.74576,10.10159 -9.30775,-6.69704 -16.34531,-8.51318 -16.34531,-8.51318 z m 55.08138,0.89658 -1.70256,13.05427 c 0,0 -7.03757,1.81614 -16.34532,8.51318 -0.56763,-0.22702 3.74577,-10.10375 3.74577,-10.10375 z" />
      <path
         id="path3-3"
         style="baseline-shift:baseline;display:inline;overflow:visible;vector-effect:none;fill:#4a6b8f;fill-opacity:1;stroke:none;stroke-opacity:1;enable-background:accumulate;stop-color:#000000"
         d="m 327.99121,885.75798 c 8.04645,7.39892 36.0644,27.249 50.4652,32.63417 l -15.6554,31.50877 c -22.98864,-12.28379 -45.70663,-27.97169 -56.9814,-38.50219 9.70895,-10.48771 14.2156,-17.25658 22.1716,-25.64075 z m 97.0002,-415.41741 c -10.9711,2.87767 -38.8986,14.0563 -49.2005,18.3908 l -15.7625,-27.9048 c 20.6442,-9.84841 28.1953,-13.84354 48.5856,-19.49623 z m -63.6317,26.85592 c -12.20658,7.06295 -26.17436,17.31196 -41.11916,30.39802 l -23.6244,-22.61795 c 10.45914,-10.70806 27.68333,-26.8667 48.91607,-37.16135 z m -53.38582,43.36542 c -14.143,14.16529 -21.59719,26.74907 -31.86879,44.06624 L 247.6562,569.2264 c 12.1497,-20.00948 21.14562,-35.42494 37.86932,-51.61593 z M 414.23721,416.58549 c -130.16828,31.44643 -227.01794,148.81175 -227.01794,288.56466 0,193.61503 174.39384,308.00025 306.32054,293.4823 l -25.0092,-22.35727 c 0,0 -54.1628,-1.56717 -89.482,-20.67598 l 12.9218,-29.50208 c 33.0303,17.8536 72.1679,17.29975 72.1679,17.29975 l 24.4003,-25.22349 c -84.932,3.08417 -207.10569,-62.54177 -217.64274,-198.64471 l 22.7492,0.61075 -37.2268,-56.58797 -36.612,56.03603 26.6051,-0.59743 c 2.1437,31.66962 12.76885,66.01965 26.04295,93.15602 l -31.60595,17.89478 c -17.4666,-35.97046 -29.4357,-82.17611 -29.4357,-124.8927 0,-45.84026 14.46927,-91.19239 27.58787,-119.94665 l 28.36254,14.95444 c -3.60933,9.4254 -8.30471,22.33298 -12.48631,37.12301 l 18.5187,28.29719 c 15.3722,-89.16981 85.35004,-159.4688 174.35444,-175.31651 0.7573,-0.13484 6.045,-1.14638 6.805,-1.27332 z M 279.63747,826.83503 c 9.297,16.22923 20.4345,31.99843 36.46272,47.16671 l -22.41653,26.27117 C 273.74365,881.54209 257.88654,856.06625 250.67987,843.78872 Z M 649.08846,527.01257 c -12.5431,-11.75052 -26.3458,-22.17214 -41.1818,-31.03859 l 16.6708,-31.79887 c 17.7667,10.3981 34.2474,22.74977 49.1485,36.76155 z m -58.872,425.07646 c -21.8486,8.93488 -45.1211,15.11798 -69.3878,18.11989 0.052,-0.01 0.085,-15.18322 0.1055,-30.60351 19.9005,-2.99069 39.0066,-8.43027 57.0011,-16.00139 z m 3.4554,-35.78971 c 17.8637,-9.09369 34.4424,-20.35807 49.3872,-33.44413 l 21.4486,23.77837 c -17.7118,15.20471 -37.4019,28.17218 -58.6346,38.46683 z m 61.2187,-44.52584 c 14.143,-14.16529 26.529,-30.0853 36.8006,-47.40247 l 28.4489,16.70723 c -12.1497,20.00948 -26.8027,38.32601 -43.5264,54.517 z m 44.6723,-61.76983 c 6.8005,-13.48689 12.3662,-27.69995 16.5478,-42.48998 l -18.5187,-28.29719 c -15.503,89.92855 -86.5448,160.66377 -176.6305,175.7092 v -7.45117 l -50.2675,46.9414 49.7441,45.84769 0.1211,-5.66805 c 147.9954,-16.73039 263.209,-142.52546 263.209,-294.95308 0,-139.48253 -96.4742,-256.66533 -226.2617,-288.38281 l -43.2643,77.21308 c 99.9272,13.47067 177.9821,95.17242 185.8494,196.79121 l -22.7492,-0.61075 37.2268,56.58797 36.612,-56.03603 -26.6051,0.59743 c -2.1437,-31.66962 -10.448,-61.66805 -23.7221,-88.80442 l 31.4609,-16.44425 c 17.4666,35.97046 27.2599,76.37398 27.2599,119.09057 0,45.84026 -11.2781,89.01659 -31.2142,126.90921 z m -6.0371,-226.82414 c -9.297,-16.22923 -20.4345,-31.27317 -33.1265,-44.84586 l 25.3176,-25.40085 c 15.0082,15.97481 28.1093,33.76282 38.9423,53.00291 z m -99.4194,-94.84892 c -15.7249,-8.0449 -32.4498,-14.40606 -49.9361,-18.84459 l 18.3384,-31.90283 c 16.8827,4.85078 33.0905,11.28658 48.4527,19.13643 z" />
      <path
         id="path7"
         style="baseline-shift:baseline;display:inline;overflow:visible;opacity:1;vector-effect:none;fill:#bf6212;fill-opacity:1;enable-background:accumulate;stop-color:#000000;stop-opacity:1"
         d="m 485.20517,504.33768 -171.21095,98.72656 -0.21094,201.66797 170.50589,100.97852 171.4433,-97.56836 0.0449,-202.9668 C 598.92797,571.5503 542.04947,537.9725 485.20517,504.33768 Z m 8.0683,28.01563 109.9336,65.07617 -109.1054,-9.27344 z m -19.9746,1.91211 0.7735,53.41992 -110.5547,9.76172 z m -7.2285,74.20507 -77.2148,135.53711 -50.56643,-124.25586 z m 34.584,0.27539 132.3633,11.30274 -47.4258,125.00781 z m -17.3789,9.92969 86.291,138.48047 h -165.1836 z m -149.16797,43.86133 40.56447,99.67774 -40.83791,20.56445 z m 301.62497,6.73633 v 115.2832 l -36.0918,-20.15234 z m -228.1953,107.88281 h 157.082 l -80.5156,102.85156 z m -24.6172,3.50195 c 3.4978,6.21836 60.1133,77.67383 60.1133,77.67383 l -98.46874,-58.5625 z m 204.5957,0.57422 38.5645,20.83985 -100.6953,57.65039 z" />
    </g>
  </g>
</svg>
